<svg xmlns="http://www.w3.org/2000/svg" width="480" height="360" viewBox="0 0 480 360">
  <defs>
    <linearGradient id="nala-neon" x1="0" y1="0" x2="1" y2="1">
      <stop offset="0" stop-color="#ff2bd6"/>
      <stop offset="0.55" stop-color="#b24bff"/>
      <stop offset="1" stop-color="#6366f1"/>
    </linearGradient>
    <radialGradient id="nala-glow" cx="0.5" cy="0.45" r="0.6">
      <stop offset="0" stop-color="#ff2bd6" stop-opacity="0.35"/>
      <stop offset="1" stop-color="#030014" stop-opacity="0"/>
    </radialGradient>
  </defs>
  <rect width="480" height="360" fill="#140a28"/>
  <rect width="480" height="360" fill="url(#nala-glow)"/>
  <ellipse cx="240" cy="300" rx="90" ry="16" fill="#0a0618"/>
  <path d="M168 168 q-28 -90 8 -120 q18 40 40 70" fill="#0e081c" stroke="url(#nala-neon)" stroke-width="3" stroke-linejoin="round"/>
  <path d="M312 168 q28 -90 -8 -120 q-18 40 -40 70" fill="#0e081c" stroke="url(#nala-neon)" stroke-width="3" stroke-linejoin="round"/>
  <ellipse cx="240" cy="250" rx="70" ry="52" fill="#0e081c" stroke="url(#nala-neon)" stroke-width="3"/>
  <circle cx="240" cy="168" r="62" fill="#0e081c" stroke="url(#nala-neon)" stroke-width="3"/>
  <ellipse cx="214" cy="160" rx="16" ry="20" fill="#030014"/>
  <ellipse cx="266" cy="160" rx="16" ry="20" fill="#030014"/>
  <circle cx="218" cy="158" r="6" fill="#f0a8ff"/>
  <circle cx="270" cy="158" r="6" fill="#f0a8ff"/>
  <ellipse cx="240" cy="186" rx="12" ry="8" fill="#ff2bd6"/>
  <path d="M228 198 q12 14 24 0" fill="none" stroke="#818cf8" stroke-width="3" stroke-linecap="round"/>
  <rect x="206" y="214" width="68" height="14" rx="7" fill="url(#nala-neon)"/>
  <circle cx="240" cy="221" r="6" fill="#030014"/>
  <rect x="188" y="278" width="18" height="36" rx="8" fill="#0e081c" stroke="#b24bff" stroke-width="2"/>
  <rect x="218" y="284" width="18" height="36" rx="8" fill="#0e081c" stroke="#b24bff" stroke-width="2"/>
  <rect x="244" y="284" width="18" height="36" rx="8" fill="#0e081c" stroke="#b24bff" stroke-width="2"/>
  <rect x="274" y="278" width="18" height="36" rx="8" fill="#0e081c" stroke="#b24bff" stroke-width="2"/>
  <path d="M308 250 q40 10 44 40" fill="none" stroke="#ff2bd6" stroke-width="6" stroke-linecap="round"/>
</svg>
